<?xml version="1.0" encoding="utf-8"?>
<!-- Generator: Adobe Illustrator 24.1.0, SVG Export Plug-In . SVG Version: 6.00 Build 0)  -->
<svg version="1.1" id="Keepass_Logo" xmlns="http://www.w3.org/2000/svg" xmlns:xlink="http://www.w3.org/1999/xlink" x="0px"
	 y="0px" viewBox="0 0 200 200" enable-background="new 0 0 200 200" xml:space="preserve">
<circle id="White_Background" fill="#FFFFFF" cx="100.001" cy="100" r="95.081"/>
<linearGradient id="Key_Logo_1_" gradientUnits="userSpaceOnUse" x1="140.3987" y1="603.4479" x2="140.3987" y2="763.5927" gradientTransform="matrix(0.952 0 0 0.952 -33.6106 -551.2056)">
	<stop  offset="0" style="stop-color:#226E23"/>
	<stop  offset="1" style="stop-color:#63AB3A"/>
</linearGradient>
<path id="Key_Logo" opacity="0.94" fill="url(#Key_Logo_1_)" enable-background="new    " d="M113.925,24.936
	c1.741,7.615-3.046,15.448-10.879,17.189c-7.833,1.741-15.448-3.046-17.189-10.879c-0.435-2.176-0.435-4.134,0-6.31
	C95.214,22.978,104.787,22.978,113.925,24.936z M59.967,42.342c0,15.448,8.921,29.59,22.845,36.118v72.67l17.189,17.189
	l17.189-17.189l-1.088-15.23l8.05-8.05l-8.05-8.05l12.184-12.184l-12.184-12.184l1.088-16.971
	c16.536-7.833,25.674-25.892,22.193-43.95c36.335,21.758,48.084,68.754,26.327,104.872s-68.754,48.084-105.089,26.327
	S12.753,96.954,34.293,60.836C40.82,49.957,49.741,41.037,60.619,34.51C60.184,37.12,59.967,39.731,59.967,42.342z M88.469,88.033
	h5.657v57.223h-5.657V88.033L88.469,88.033L88.469,88.033z"/>
<circle id="Outline" fill="none" stroke="#515151" stroke-width="6.5" stroke-miterlimit="10" cx="100.001" cy="100" r="95.081"/>
</svg>
